<svg xmlns="http://www.w3.org/2000/svg" width="1068" height="1068">
<line x1="435" y1="437" x2="471" y2="436" stroke="greenyellow" stroke-width="1" /> 
<line x1="435" y1="437" x2="392" y2="459" stroke="greenyellow" stroke-width="1" /> 
<line x1="389" y1="483" x2="392" y2="459" stroke="greenyellow" stroke-width="1" /> 
<line x1="508" y1="438" x2="471" y2="436" stroke="greenyellow" stroke-width="1" /> 
<line x1="435" y1="437" x2="444" y2="471" stroke="pink" stroke-width="1" /> 
<line x1="504" y1="477" x2="444" y2="471" stroke="pink" stroke-width="1" /> 
<line x1="508" y1="438" x2="504" y2="477" stroke="red" stroke-width="1" /> 
<line x1="501" y1="405" x2="508" y2="438" stroke="red" stroke-width="1" /> 
<line x1="501" y1="405" x2="488" y2="443" stroke="blue" stroke-width="1" /> 
<line x1="504" y1="477" x2="488" y2="443" stroke="blue" stroke-width="1" /> 
<line x1="430" y1="407" x2="435" y2="437" stroke="pink" stroke-width="1" /> 
<line x1="430" y1="407" x2="374" y2="367" stroke="pink" stroke-width="1" /> 
<line x1="373" y1="344" x2="374" y2="367" stroke="pink" stroke-width="1" /> 
<line x1="501" y1="405" x2="430" y2="407" stroke="green" stroke-width="14" /> 
<line x1="504" y1="477" x2="494" y2="531" stroke="red" stroke-width="1" /> 
<line x1="504" y1="477" x2="499" y2="508" stroke="blue" stroke-width="1" /> 
<line x1="494" y1="531" x2="499" y2="508" stroke="blue" stroke-width="1" /> 
<line x1="360" y1="436" x2="430" y2="407" stroke="green" stroke-width="14" /> 
<line x1="297" y1="470" x2="360" y2="436" stroke="green" stroke-width="14" /> 
<line x1="222" y1="507" x2="297" y2="470" stroke="green" stroke-width="14" /> 
<line x1="142" y1="542" x2="222" y2="507" stroke="green" stroke-width="14" /> 
<line x1="20" y1="595" x2="142" y2="542" stroke="green" stroke-width="14" /> 
<line x1="20" y1="595" x2="20" y2="616" stroke="skyblue" stroke-width="14" /> 
<line x1="20" y1="616" x2="48" y2="638" stroke="skyblue" stroke-width="14" /> 
<line x1="48" y1="638" x2="77" y2="654" stroke="skyblue" stroke-width="14" /> 
<line x1="77" y1="654" x2="112" y2="654" stroke="skyblue" stroke-width="14" /> 
<line x1="112" y1="654" x2="145" y2="711" stroke="skyblue" stroke-width="14" /> 
<line x1="145" y1="711" x2="165" y2="737" stroke="skyblue" stroke-width="14" /> 
<line x1="165" y1="737" x2="206" y2="737" stroke="skyblue" stroke-width="14" /> 
<line x1="206" y1="737" x2="276" y2="753" stroke="skyblue" stroke-width="14" /> 
<line x1="350" y1="760" x2="276" y2="753" stroke="skyblue" stroke-width="14" /> 
<line x1="389" y1="701" x2="350" y2="760" stroke="blue" stroke-width="14" /> 
<line x1="454" y1="687" x2="389" y2="701" stroke="blue" stroke-width="14" /> 
<line x1="472" y1="637" x2="454" y2="687" stroke="blue" stroke-width="14" /> 
<line x1="488" y1="588" x2="472" y2="637" stroke="blue" stroke-width="14" /> 
<line x1="494" y1="531" x2="488" y2="588" stroke="blue" stroke-width="14" /> 
<line x1="508" y1="438" x2="541" y2="440" stroke="greenyellow" stroke-width="1" /> 
<line x1="504" y1="477" x2="543" y2="477" stroke="pink" stroke-width="1" /> 
<line x1="543" y1="477" x2="541" y2="440" stroke="brown" stroke-width="1" /> 
<line x1="494" y1="531" x2="525" y2="563" stroke="red" stroke-width="14" /> 
<line x1="525" y1="563" x2="488" y2="625" stroke="brown" stroke-width="1" /> 
<line x1="525" y1="563" x2="535" y2="540" stroke="brown" stroke-width="1" /> 
<line x1="543" y1="477" x2="535" y2="540" stroke="brown" stroke-width="1" /> 
<line x1="594" y1="477" x2="543" y2="477" stroke="pink" stroke-width="1" /> 
<line x1="594" y1="477" x2="585" y2="519" stroke="purple" stroke-width="1" /> 
<line x1="578" y1="579" x2="585" y2="519" stroke="purple" stroke-width="1" /> 
<line x1="578" y1="579" x2="573" y2="598" stroke="purple" stroke-width="1" /> 
<line x1="573" y1="598" x2="606" y2="629" stroke="purple" stroke-width="1" /> 
<line x1="606" y1="629" x2="648" y2="667" stroke="purple" stroke-width="1" /> 
<line x1="648" y1="667" x2="690" y2="700" stroke="purple" stroke-width="1" /> 
<line x1="690" y1="700" x2="778" y2="702" stroke="purple" stroke-width="1" /> 
<line x1="778" y1="702" x2="793" y2="759" stroke="purple" stroke-width="1" /> 
<line x1="793" y1="759" x2="871" y2="761" stroke="purple" stroke-width="1" /> 
<line x1="871" y1="761" x2="916" y2="793" stroke="purple" stroke-width="1" /> 
<line x1="916" y1="793" x2="964" y2="817" stroke="purple" stroke-width="1" /> 
<line x1="578" y1="579" x2="600" y2="641" stroke="red" stroke-width="1" /> 
<line x1="600" y1="641" x2="590" y2="699" stroke="red" stroke-width="1" /> 
<line x1="590" y1="699" x2="583" y2="757" stroke="red" stroke-width="1" /> 
<line x1="583" y1="757" x2="577" y2="811" stroke="red" stroke-width="1" /> 
<line x1="577" y1="811" x2="598" y2="893" stroke="red" stroke-width="1" /> 
<line x1="598" y1="893" x2="589" y2="964" stroke="red" stroke-width="1" /> 
<line x1="589" y1="964" x2="538" y2="1020" stroke="red" stroke-width="1" /> 
<line x1="525" y1="563" x2="578" y2="579" stroke="red" stroke-width="14" /> 
<line x1="501" y1="405" x2="545" y2="405" stroke="green" stroke-width="1" /> 
<line x1="545" y1="405" x2="541" y2="440" stroke="brown" stroke-width="1" /> 
<line x1="541" y1="440" x2="575" y2="436" stroke="greenyellow" stroke-width="1" /> 
<line x1="600" y1="439" x2="575" y2="436" stroke="greenyellow" stroke-width="1" /> 
<line x1="600" y1="439" x2="594" y2="477" stroke="purple" stroke-width="1" /> 
<line x1="602" y1="405" x2="545" y2="405" stroke="green" stroke-width="1" /> 
<line x1="602" y1="405" x2="600" y2="439" stroke="purple" stroke-width="1" /> 
<line x1="545" y1="405" x2="543" y2="358" stroke="brown" stroke-width="1" /> 
<line x1="568" y1="328" x2="543" y2="358" stroke="brown" stroke-width="1" /> 
<line x1="603" y1="368" x2="602" y2="405" stroke="purple" stroke-width="14" /> 
<line x1="568" y1="328" x2="603" y2="368" stroke="purple" stroke-width="14" /> 
<line x1="501" y1="405" x2="486" y2="359" stroke="blue" stroke-width="1" /> 
<line x1="483" y1="318" x2="486" y2="359" stroke="blue" stroke-width="1" /> 
<line x1="489" y1="262" x2="483" y2="318" stroke="red" stroke-width="1" /> 
<line x1="498" y1="187" x2="489" y2="262" stroke="red" stroke-width="1" /> 
<line x1="498" y1="156" x2="498" y2="187" stroke="red" stroke-width="1" /> 
<line x1="498" y1="116" x2="498" y2="156" stroke="red" stroke-width="1" /> 
<line x1="490" y1="29" x2="498" y2="116" stroke="red" stroke-width="1" /> 
<line x1="512" y1="354" x2="501" y2="405" stroke="red" stroke-width="14" /> 
<line x1="483" y1="318" x2="512" y2="354" stroke="red" stroke-width="14" /> 
<line x1="483" y1="318" x2="568" y2="328" stroke="purple" stroke-width="14" /> 
<line x1="600" y1="439" x2="674" y2="440" stroke="greenyellow" stroke-width="1" /> 
<line x1="692" y1="405" x2="674" y2="440" stroke="greenyellow" stroke-width="1" /> 
<line x1="602" y1="405" x2="692" y2="405" stroke="green" stroke-width="14" /> 
<line x1="594" y1="477" x2="669" y2="482" stroke="pink" stroke-width="1" /> 
<line x1="669" y1="482" x2="752" y2="470" stroke="pink" stroke-width="1" /> 
<line x1="752" y1="470" x2="805" y2="472" stroke="pink" stroke-width="1" /> 
<line x1="805" y1="472" x2="818" y2="504" stroke="pink" stroke-width="1" /> 
<line x1="818" y1="504" x2="811" y2="546" stroke="pink" stroke-width="1" /> 
<line x1="811" y1="546" x2="802" y2="594" stroke="pink" stroke-width="1" /> 
<line x1="757" y1="410" x2="752" y2="470" stroke="orange" stroke-width="1" /> 
<line x1="757" y1="410" x2="824" y2="419" stroke="green" stroke-width="1" /> 
<line x1="824" y1="419" x2="912" y2="420" stroke="green" stroke-width="1" /> 
<line x1="912" y1="420" x2="1016" y2="420" stroke="green" stroke-width="1" /> 
<line x1="692" y1="405" x2="757" y2="410" stroke="green" stroke-width="14" /> 
<line x1="568" y1="328" x2="566" y2="298" stroke="brown" stroke-width="1" /> 
<line x1="566" y1="266" x2="566" y2="298" stroke="brown" stroke-width="1" /> 
<line x1="566" y1="266" x2="535" y2="283" stroke="purple" stroke-width="1" /> 
<line x1="483" y1="318" x2="535" y2="283" stroke="purple" stroke-width="1" /> 
<line x1="692" y1="405" x2="671" y2="355" stroke="greenyellow" stroke-width="1" /> 
<line x1="671" y1="355" x2="673" y2="332" stroke="greenyellow" stroke-width="1" /> 
<line x1="673" y1="332" x2="771" y2="315" stroke="greenyellow" stroke-width="1" /> 
<line x1="771" y1="315" x2="840" y2="307" stroke="greenyellow" stroke-width="1" /> 
<line x1="840" y1="307" x2="910" y2="299" stroke="greenyellow" stroke-width="1" /> 
<line x1="910" y1="299" x2="952" y2="264" stroke="greenyellow" stroke-width="1" /> 
<line x1="952" y1="264" x2="1020" y2="234" stroke="greenyellow" stroke-width="1" /> 
<line x1="757" y1="410" x2="757" y2="353" stroke="orange" stroke-width="14" /> 
<line x1="771" y1="315" x2="757" y2="353" stroke="orange" stroke-width="14" /> 
<line x1="649" y1="272" x2="566" y2="266" stroke="purple" stroke-width="1" /> 
<line x1="718" y1="273" x2="649" y2="272" stroke="purple" stroke-width="1" /> 
<line x1="760" y1="242" x2="718" y2="273" stroke="purple" stroke-width="1" /> 
<line x1="779" y1="200" x2="760" y2="242" stroke="purple" stroke-width="1" /> 
<line x1="811" y1="163" x2="779" y2="200" stroke="purple" stroke-width="1" /> 
<line x1="811" y1="163" x2="753" y2="102" stroke="orange" stroke-width="1" /> 
<line x1="768" y1="61" x2="753" y2="102" stroke="orange" stroke-width="1" /> 
<line x1="753" y1="20" x2="768" y2="61" stroke="orange" stroke-width="1" /> 
<line x1="861" y1="131" x2="811" y2="163" stroke="purple" stroke-width="1" /> 
<line x1="944" y1="78" x2="861" y2="131" stroke="purple" stroke-width="1" /> 
<line x1="811" y1="163" x2="857" y2="212" stroke="orange" stroke-width="1" /> 
<line x1="857" y1="212" x2="830" y2="242" stroke="orange" stroke-width="1" /> 
<line x1="830" y1="242" x2="764" y2="253" stroke="orange" stroke-width="1" /> 
<line x1="771" y1="315" x2="764" y2="253" stroke="orange" stroke-width="14" /> 
<circle cx="490" cy="29" r="8" fill="white" stroke="black" stroke-width="2" />
<circle cx="498" cy="116" r="8" fill="white" stroke="black" stroke-width="2" />
<circle cx="498" cy="156" r="8" fill="white" stroke="black" stroke-width="2" />
<circle cx="498" cy="187" r="8" fill="white" stroke="black" stroke-width="2" />
<circle cx="489" cy="262" r="8" fill="white" stroke="black" stroke-width="2" />
<circle cx="483" cy="318" r="8" fill="white" stroke="black" stroke-width="2" />
<circle cx="512" cy="354" r="8" fill="white" stroke="black" stroke-width="2" />
<circle cx="501" cy="405" r="8" fill="white" stroke="black" stroke-width="2" />
<circle cx="508" cy="438" r="8" fill="white" stroke="black" stroke-width="2" />
<circle cx="504" cy="477" r="8" fill="white" stroke="black" stroke-width="2" />
<circle cx="494" cy="531" r="8" fill="white" stroke="black" stroke-width="2" />
<circle cx="525" cy="563" r="8" fill="white" stroke="black" stroke-width="2" />
<circle cx="578" cy="579" r="8" fill="white" stroke="black" stroke-width="2" />
<circle cx="600" cy="641" r="8" fill="white" stroke="black" stroke-width="2" />
<circle cx="590" cy="699" r="8" fill="white" stroke="black" stroke-width="2" />
<circle cx="583" cy="757" r="8" fill="white" stroke="black" stroke-width="2" />
<circle cx="577" cy="811" r="8" fill="white" stroke="black" stroke-width="2" />
<circle cx="598" cy="893" r="8" fill="white" stroke="black" stroke-width="2" />
<circle cx="589" cy="964" r="8" fill="white" stroke="black" stroke-width="2" />
<circle cx="538" cy="1020" r="8" fill="white" stroke="black" stroke-width="2" />
<circle cx="944" cy="78" r="8" fill="white" stroke="black" stroke-width="2" />
<circle cx="861" cy="131" r="8" fill="white" stroke="black" stroke-width="2" />
<circle cx="811" cy="163" r="8" fill="white" stroke="black" stroke-width="2" />
<circle cx="779" cy="200" r="8" fill="white" stroke="black" stroke-width="2" />
<circle cx="760" cy="242" r="8" fill="white" stroke="black" stroke-width="2" />
<circle cx="718" cy="273" r="8" fill="white" stroke="black" stroke-width="2" />
<circle cx="649" cy="272" r="8" fill="white" stroke="black" stroke-width="2" />
<circle cx="566" cy="266" r="8" fill="white" stroke="black" stroke-width="2" />
<circle cx="535" cy="283" r="8" fill="white" stroke="black" stroke-width="2" />
<circle cx="568" cy="328" r="8" fill="white" stroke="black" stroke-width="2" />
<circle cx="603" cy="368" r="8" fill="white" stroke="black" stroke-width="2" />
<circle cx="602" cy="405" r="8" fill="white" stroke="black" stroke-width="2" />
<circle cx="600" cy="439" r="8" fill="white" stroke="black" stroke-width="2" />
<circle cx="594" cy="477" r="8" fill="white" stroke="black" stroke-width="2" />
<circle cx="585" cy="519" r="8" fill="white" stroke="black" stroke-width="2" />
<circle cx="573" cy="598" r="8" fill="white" stroke="black" stroke-width="2" />
<circle cx="606" cy="629" r="8" fill="white" stroke="black" stroke-width="2" />
<circle cx="648" cy="667" r="8" fill="white" stroke="black" stroke-width="2" />
<circle cx="690" cy="700" r="8" fill="white" stroke="black" stroke-width="2" />
<circle cx="778" cy="702" r="8" fill="white" stroke="black" stroke-width="2" />
<circle cx="793" cy="759" r="8" fill="white" stroke="black" stroke-width="2" />
<circle cx="871" cy="761" r="8" fill="white" stroke="black" stroke-width="2" />
<circle cx="916" cy="793" r="8" fill="white" stroke="black" stroke-width="2" />
<circle cx="964" cy="817" r="8" fill="white" stroke="black" stroke-width="2" />
<circle cx="486" cy="359" r="8" fill="white" stroke="black" stroke-width="2" />
<circle cx="488" cy="443" r="8" fill="white" stroke="black" stroke-width="2" />
<circle cx="488" cy="588" r="8" fill="white" stroke="black" stroke-width="2" />
<circle cx="472" cy="637" r="8" fill="white" stroke="black" stroke-width="2" />
<circle cx="454" cy="687" r="8" fill="white" stroke="black" stroke-width="2" />
<circle cx="389" cy="701" r="8" fill="white" stroke="black" stroke-width="2" />
<circle cx="350" cy="760" r="8" fill="white" stroke="black" stroke-width="2" />
<circle cx="20" cy="595" r="8" fill="white" stroke="black" stroke-width="2" />
<circle cx="142" cy="542" r="8" fill="white" stroke="black" stroke-width="2" />
<circle cx="222" cy="507" r="8" fill="white" stroke="black" stroke-width="2" />
<circle cx="297" cy="470" r="8" fill="white" stroke="black" stroke-width="2" />
<circle cx="360" cy="436" r="8" fill="white" stroke="black" stroke-width="2" />
<circle cx="430" cy="407" r="8" fill="white" stroke="black" stroke-width="2" />
<circle cx="545" cy="405" r="8" fill="white" stroke="black" stroke-width="2" />
<circle cx="692" cy="405" r="8" fill="white" stroke="black" stroke-width="2" />
<circle cx="757" cy="410" r="8" fill="white" stroke="black" stroke-width="2" />
<circle cx="824" cy="419" r="8" fill="white" stroke="black" stroke-width="2" />
<circle cx="912" cy="420" r="8" fill="white" stroke="black" stroke-width="2" />
<circle cx="1016" cy="420" r="8" fill="white" stroke="black" stroke-width="2" />
<circle cx="373" cy="344" r="8" fill="white" stroke="black" stroke-width="2" />
<circle cx="374" cy="367" r="8" fill="white" stroke="black" stroke-width="2" />
<circle cx="435" cy="437" r="8" fill="white" stroke="black" stroke-width="2" />
<circle cx="444" cy="471" r="8" fill="white" stroke="black" stroke-width="2" />
<circle cx="543" cy="477" r="8" fill="white" stroke="black" stroke-width="2" />
<circle cx="669" cy="482" r="8" fill="white" stroke="black" stroke-width="2" />
<circle cx="752" cy="470" r="8" fill="white" stroke="black" stroke-width="2" />
<circle cx="805" cy="472" r="8" fill="white" stroke="black" stroke-width="2" />
<circle cx="818" cy="504" r="8" fill="white" stroke="black" stroke-width="2" />
<circle cx="811" cy="546" r="8" fill="white" stroke="black" stroke-width="2" />
<circle cx="802" cy="594" r="8" fill="white" stroke="black" stroke-width="2" />
<circle cx="566" cy="298" r="8" fill="white" stroke="black" stroke-width="2" />
<circle cx="543" cy="358" r="8" fill="white" stroke="black" stroke-width="2" />
<circle cx="541" cy="440" r="8" fill="white" stroke="black" stroke-width="2" />
<circle cx="535" cy="540" r="8" fill="white" stroke="black" stroke-width="2" />
<circle cx="488" cy="625" r="8" fill="white" stroke="black" stroke-width="2" />
<circle cx="389" cy="483" r="8" fill="white" stroke="black" stroke-width="2" />
<circle cx="392" cy="459" r="8" fill="white" stroke="black" stroke-width="2" />
<circle cx="471" cy="436" r="8" fill="white" stroke="black" stroke-width="2" />
<circle cx="575" cy="436" r="8" fill="white" stroke="black" stroke-width="2" />
<circle cx="674" cy="440" r="8" fill="white" stroke="black" stroke-width="2" />
<circle cx="671" cy="355" r="8" fill="white" stroke="black" stroke-width="2" />
<circle cx="673" cy="332" r="8" fill="white" stroke="black" stroke-width="2" />
<circle cx="771" cy="315" r="8" fill="white" stroke="black" stroke-width="2" />
<circle cx="840" cy="307" r="8" fill="white" stroke="black" stroke-width="2" />
<circle cx="910" cy="299" r="8" fill="white" stroke="black" stroke-width="2" />
<circle cx="952" cy="264" r="8" fill="white" stroke="black" stroke-width="2" />
<circle cx="1020" cy="234" r="8" fill="white" stroke="black" stroke-width="2" />
<circle cx="753" cy="20" r="8" fill="white" stroke="black" stroke-width="2" />
<circle cx="768" cy="61" r="8" fill="white" stroke="black" stroke-width="2" />
<circle cx="753" cy="102" r="8" fill="white" stroke="black" stroke-width="2" />
<circle cx="857" cy="212" r="8" fill="white" stroke="black" stroke-width="2" />
<circle cx="830" cy="242" r="8" fill="white" stroke="black" stroke-width="2" />
<circle cx="764" cy="253" r="8" fill="white" stroke="black" stroke-width="2" />
<circle cx="757" cy="353" r="8" fill="white" stroke="black" stroke-width="2" />
<circle cx="20" cy="616" r="8" fill="white" stroke="black" stroke-width="2" />
<circle cx="48" cy="638" r="8" fill="white" stroke="black" stroke-width="2" />
<circle cx="77" cy="654" r="8" fill="white" stroke="black" stroke-width="2" />
<circle cx="112" cy="654" r="8" fill="white" stroke="black" stroke-width="2" />
<circle cx="145" cy="711" r="8" fill="white" stroke="black" stroke-width="2" />
<circle cx="165" cy="737" r="8" fill="white" stroke="black" stroke-width="2" />
<circle cx="206" cy="737" r="8" fill="white" stroke="black" stroke-width="2" />
<circle cx="276" cy="753" r="8" fill="white" stroke="black" stroke-width="2" />
<circle cx="499" cy="508" r="8" fill="white" stroke="black" stroke-width="2" />

</svg>
